<svg xmlns="http://www.w3.org/2000/svg" width="200" height="200" viewBox="-100 -100 200 200">
  
  <!-- Hexágonos -->
  <polygon points="0,35 30.31,17.5 30.31,-17.5 0,-35 -30.31,-17.5 -30.31,17.5" fill="none" stroke="#FFFFFF" stroke-width="4" />
  <polygon points="0,45 38.97,22.5 38.97,-22.5 0,-45 -38.97,-22.5 -38.97,22.5" fill="none" stroke="#FFFFFF" stroke-width="1" />
  <polygon points="0,55 47.63,27.5 47.63,-27.5 0,-55 -47.63,-27.5 -47.63,27.5" fill="none" stroke="#FFFFFF" stroke-width="1" />
  <polygon points="0,65 56.57,32.5 56.57,-32.5 0,-65 -56.57,-32.5 -56.57,32.5" fill="none" stroke="#FFFFFF" stroke-width="1" />
  <polygon points="0,75 65.31,37.5 65.31,-37.5 0,-75 -65.31,-37.5 -65.31,37.5" fill="none" stroke="#FFFFFF" stroke-width="1" />
  <polygon points="0,85 74.06,42.5 74.06,-42.5 0,-85 -74.06,-42.5 -74.06,42.5" fill="none" stroke="#FFFFFF" stroke-width="1" />
  <polygon points="0,95 82.80,47.5 82.80,-47.5 0,-95 -82.80,-47.5 -82.80,47.5" fill="none" stroke="#0CC0DF" stroke-width="4" />

  <!-- Líneas -->
  <line x1="0" y1="95" x2="0" y2="0" stroke="#0CC0DF" stroke-width="4" />
  <line x1="82.80" y1="47.5" x2="30.31" y2="17.5" stroke="#0CC0DF" stroke-width="1" />
  <line x1="82.80" y1="-47.5" x2="0" y2="0" stroke="#0CC0DF" stroke-width="4" />
  <line x1="0" y1="-95" x2="0" y2="-35" stroke="#0CC0DF" stroke-width="1" />
  <line x1="-82.80" y1="-47.5" x2="0" y2="0" stroke="#0CC0DF" stroke-width="4" />
  <line x1="-82.80" y1="47.5" x2="-30.31" y2="17.5" stroke="#0CC0DF" stroke-width="1" />
</svg>


