<!-- <svg xmlns="http://www.w3.org/2000/svg" width="200" height="200" viewBox="-100 -100 200 200">
  <polygon points="0,25 21.65,12.5 21.65,-12.5 0,-25 -21.65,-12.5 -21.65,12.5" fill="none" stroke="#FFFFFF" stroke-width="2" />
  <polygon points="0,35 30.31,17.5 30.31,-17.5 0,-35 -30.31,-17.5 -30.31,17.5" fill="none" stroke="#FFFFFF" stroke-width="2" />
  <polygon points="0,45 38.97,22.5 38.97,-22.5 0,-45 -38.97,-22.5 -38.97,22.5" fill="none" stroke="#FFFFFF" stroke-width="2" />
  <polygon points="0,55 47.63,27.5 47.63,-27.5 0,-55 -47.63,-27.5 -47.63,27.5" fill="none" stroke="#FFFFFF" stroke-width="2" />
</svg> -->

<!-- <svg xmlns="http://www.w3.org/2000/svg" width="200" height="200" viewBox="-100 -100 200 200">

  <polygon points="0,25 21.65,12.5 21.65,-12.5 0,-25 -21.65,-12.5 -21.65,12.5" fill="none" stroke="#FFFFFF" stroke-width="2" />
  <polygon points="0,35 30.31,17.5 30.31,-17.5 0,-35 -30.31,-17.5 -30.31,17.5" fill="none" stroke="#FFFFFF" stroke-width="2" />
  <polygon points="0,45 38.97,22.5 38.97,-22.5 0,-45 -38.97,-22.5 -38.97,22.5" fill="none" stroke="#FFFFFF" stroke-width="2" />
  <polygon points="0,55 47.63,27.5 47.63,-27.5 0,-55 -47.63,-27.5 -47.63,27.5" fill="none" stroke="#FFFFFF" stroke-width="4" />
  
  
  <line x1="0" y1="25" x2="0" y2="0" stroke="#FFFFFF" stroke-width="4" />
  <line x1="21.65" y1="-12.5" x2="0" y2="0" stroke="#FFFFFF" stroke-width="4" />
  <line x1="-21.65" y1="-12.5" x2="0" y2="0" stroke="#FFFFFF" stroke-width="4" />
  
  <line x1="0" y1="35" x2="0" y2="0" stroke="#FFFFFF" stroke-width="4" />
  <line x1="30.31" y1="-17.5" x2="0" y2="0" stroke="#FFFFFF" stroke-width="4" />
  <line x1="-30.31" y1="-17.5" x2="0" y2="0" stroke="#FFFFFF" stroke-width="4" />
  
  <line x1="0" y1="45" x2="0" y2="0" stroke="#FFFFFF" stroke-width="4" />
  <line x1="38.97" y1="-22.5" x2="0" y2="0" stroke="#FFFFFF" stroke-width="4" />
  <line x1="-38.97" y1="-22.5" x2="0" y2="0" stroke="#FFFFFF" stroke-width="4" />
  
  <line x1="0" y1="55" x2="0" y2="0" stroke="#FFFFFF" stroke-width="4" />
  <line x1="47.63" y1="27.5" x2="21.65" y2="12.5" stroke="#FFFFFF" stroke-width="2" />
  <line x1="47.63" y1="-27.5" x2="0" y2="0" stroke="#FFFFFF" stroke-width="4" />
  <line x1="0" y1="-55" x2="0" y2="-25" stroke="#FFFFFF" stroke-width="2" />
  <line x1="-47.63" y1="-27.5" x2="0" y2="0" stroke="#FFFFFF" stroke-width="4" />
  <line x1="-47.63" y1="27.5" x2="-21.65" y2="12.5" stroke="#FFFFFF" stroke-width="2" />
</svg> -->

<svg xmlns="http://www.w3.org/2000/svg" width="200" height="200" viewBox="-100 -100 200 200">

  <!-- Hexágonos internos -->
  <polygon points="0,35 30.31,17.5 30.31,-17.5 0,-35 -30.31,-17.5 -30.31,17.5" fill="none" stroke="#FFFFFF" stroke-width="2" />
  <polygon points="0,45 38.97,22.5 38.97,-22.5 0,-45 -38.97,-22.5 -38.97,22.5" fill="none" stroke="#FFFFFF" stroke-width="2" />
  <polygon points="0,55 47.63,27.5 47.63,-27.5 0,-55 -47.63,-27.5 -47.63,27.5" fill="none" stroke="#FFFFFF" stroke-width="2" />
  <polygon points="0,65 56.57,32.5 56.57,-32.5 0,-65 -56.57,-32.5 -56.57,32.5" fill="none" stroke="#FFFFFF" stroke-width="4" />

  <!-- Líneas -->
  <line x1="0" y1="25" x2="0" y2="0" stroke="#FFFFFF" stroke-width="4" />
  <line x1="21.65" y1="-12.5" x2="0" y2="0" stroke="#FFFFFF" stroke-width="4" />
  <line x1="-21.65" y1="-12.5" x2="0" y2="0" stroke="#FFFFFF" stroke-width="4" />

  <line x1="0" y1="35" x2="0" y2="0" stroke="#FFFFFF" stroke-width="4" />
  <line x1="30.31" y1="-17.5" x2="0" y2="0" stroke="#FFFFFF" stroke-width="4" />
  <line x1="-30.31" y1="-17.5" x2="0" y2="0" stroke="#FFFFFF" stroke-width="4" />

  <line x1="0" y1="45" x2="0" y2="0" stroke="#FFFFFF" stroke-width="4" />
  <line x1="38.97" y1="-22.5" x2="0" y2="0" stroke="#FFFFFF" stroke-width="4" />
  <line x1="-38.97" y1="-22.5" x2="0" y2="0" stroke="#FFFFFF" stroke-width="4" />

  <line x1="0" y1="65" x2="0" y2="0" stroke="#FFFFFF" stroke-width="4" />
  
  <line x1="56.57" y1="-32.5" x2="0" y2="0" stroke="#FFFFFF" stroke-width="4" />
  <line x1="-56.57" y1="-32.5" x2="0" y2="0" stroke="#FFFFFF" stroke-width="4" />
</svg>
