<svg xmlns="http://www.w3.org/2000/svg" xmlns:xlink="http://www.w3.org/1999/xlink" width="1080" zoomAndPan="magnify" viewBox="0 0 810 809.999993" height="1080" preserveAspectRatio="xMidYMid meet" version="1.0"><defs><clipPath id="2f3e040b08"><path d="M 394.519531 394.519531 L 415.480469 394.519531 L 415.480469 415.480469 L 394.519531 415.480469 Z M 394.519531 394.519531 " clip-rule="nonzero"/></clipPath><clipPath id="fa21fea297"><path d="M 405 394.519531 C 399.210938 394.519531 394.519531 399.210938 394.519531 405 C 394.519531 410.789062 399.210938 415.480469 405 415.480469 C 410.789062 415.480469 415.480469 410.789062 415.480469 405 C 415.480469 399.210938 410.789062 394.519531 405 394.519531 Z M 405 394.519531 " clip-rule="nonzero"/></clipPath><clipPath id="498cfb79c6"><path d="M 394.519531 708.039062 L 415.480469 708.039062 L 415.480469 729 L 394.519531 729 Z M 394.519531 708.039062 " clip-rule="nonzero"/></clipPath><clipPath id="3f956cbc88"><path d="M 405 708.039062 C 399.210938 708.039062 394.519531 712.730469 394.519531 718.519531 C 394.519531 724.308594 399.210938 729 405 729 C 410.789062 729 415.480469 724.308594 415.480469 718.519531 C 415.480469 712.730469 410.789062 708.039062 405 708.039062 Z M 405 708.039062 " clip-rule="nonzero"/></clipPath><clipPath id="d2bd87b497"><path d="M 123.71875 551.046875 L 144.679688 551.046875 L 144.679688 572.007812 L 123.71875 572.007812 Z M 123.71875 551.046875 " clip-rule="nonzero"/></clipPath><clipPath id="fe5e9d0359"><path d="M 134.199219 551.046875 C 128.410156 551.046875 123.71875 555.738281 123.71875 561.527344 C 123.71875 567.316406 128.410156 572.007812 134.199219 572.007812 C 139.988281 572.007812 144.679688 567.316406 144.679688 561.527344 C 144.679688 555.738281 139.988281 551.046875 134.199219 551.046875 Z M 134.199219 551.046875 " clip-rule="nonzero"/></clipPath><clipPath id="65b4eda410"><path d="M 665.320312 551.046875 L 686.28125 551.046875 L 686.28125 572.007812 L 665.320312 572.007812 Z M 665.320312 551.046875 " clip-rule="nonzero"/></clipPath><clipPath id="7eb0d46b99"><path d="M 675.800781 551.046875 C 670.011719 551.046875 665.320312 555.738281 665.320312 561.527344 C 665.320312 567.316406 670.011719 572.007812 675.800781 572.007812 C 681.589844 572.007812 686.28125 567.316406 686.28125 561.527344 C 686.28125 555.738281 681.589844 551.046875 675.800781 551.046875 Z M 675.800781 551.046875 " clip-rule="nonzero"/></clipPath><clipPath id="67d0bc3ef0"><path d="M 665.320312 241.550781 L 686.28125 241.550781 L 686.28125 262.511719 L 665.320312 262.511719 Z M 665.320312 241.550781 " clip-rule="nonzero"/></clipPath><clipPath id="6b0d89e33a"><path d="M 675.800781 241.550781 C 670.011719 241.550781 665.320312 246.242188 665.320312 252.03125 C 665.320312 257.820312 670.011719 262.511719 675.800781 262.511719 C 681.589844 262.511719 686.28125 257.820312 686.28125 252.03125 C 686.28125 246.242188 681.589844 241.550781 675.800781 241.550781 Z M 675.800781 241.550781 " clip-rule="nonzero"/></clipPath><clipPath id="3a9e81b527"><path d="M 123.71875 241.550781 L 144.679688 241.550781 L 144.679688 262.511719 L 123.71875 262.511719 Z M 123.71875 241.550781 " clip-rule="nonzero"/></clipPath><clipPath id="66fedc0f12"><path d="M 134.199219 241.550781 C 128.410156 241.550781 123.71875 246.242188 123.71875 252.03125 C 123.71875 257.820312 128.410156 262.511719 134.199219 262.511719 C 139.988281 262.511719 144.679688 257.820312 144.679688 252.03125 C 144.679688 246.242188 139.988281 241.550781 134.199219 241.550781 Z M 134.199219 241.550781 " clip-rule="nonzero"/></clipPath><clipPath id="c10b62eda9"><path d="M 394.519531 81 L 415.480469 81 L 415.480469 101.960938 L 394.519531 101.960938 Z M 394.519531 81 " clip-rule="nonzero"/></clipPath><clipPath id="c8ceca5231"><path d="M 405 81 C 399.210938 81 394.519531 85.691406 394.519531 91.480469 C 394.519531 97.269531 399.210938 101.960938 405 101.960938 C 410.789062 101.960938 415.480469 97.269531 415.480469 91.480469 C 415.480469 85.691406 410.789062 81 405 81 Z M 405 81 " clip-rule="nonzero"/></clipPath></defs><path stroke-linecap="round" transform="matrix(-1.435037, -0.847564, 0.847564, -1.435037, 592.441318, 301.392806)" fill="none" stroke-linejoin="miter" d="M 2.000227 1.999503 L 129.22425 2.00054 " stroke="#ffffff" stroke-width="4" stroke-opacity="1" stroke-miterlimit="4"/><path stroke-linecap="round" transform="matrix(1.435037, -0.847564, 0.847564, 1.435037, 215.826043, 295.652643)" fill="none" stroke-linejoin="miter" d="M 1.999515 2.000088 L 129.223538 1.999051 " stroke="#ffffff" stroke-width="4" stroke-opacity="1" stroke-miterlimit="4"/><path stroke-linecap="round" transform="matrix(0, -1.666642, 1.666642, 0, 214.184568, 514.749714)" fill="none" stroke-linejoin="miter" d="M 1.999076 2.001007 L 127.738409 2.001007 " stroke="#ffffff" stroke-width="4" stroke-opacity="1" stroke-miterlimit="4"/><path stroke-linecap="round" transform="matrix(0.00000000290884, -1.666642, 1.666642, 0.00000000290884, 590.807542, 514.749714)" fill="none" stroke-linejoin="miter" d="M 1.999076 1.999879 L 127.738409 1.999879 " stroke="#ffffff" stroke-width="4" stroke-opacity="1" stroke-miterlimit="4"/><path stroke-linecap="round" transform="matrix(1.443815, 0.832523, -0.832523, 1.443815, 219.18635, 511.867914)" fill="none" stroke-linejoin="miter" d="M 2.00102 2.000302 L 128.425931 1.999195 " stroke="#ffffff" stroke-width="4" stroke-opacity="1" stroke-miterlimit="4"/><path stroke-linecap="butt" transform="matrix(1.443815, -0.832523, 0.832523, 1.443815, 404.167783, 620.447029)" fill="none" stroke-linejoin="miter" d="M -0.00079736 2.000425 L 130.426949 1.999117 " stroke="#ffffff" stroke-width="4" stroke-opacity="1" stroke-miterlimit="4"/><path stroke-linecap="round" transform="matrix(0.647345, -0.378741, 0.378741, 0.647345, 403.673623, 655.930883)" fill="none" stroke-linejoin="miter" d="M 3.500739 3.500587 L 334.342583 3.498771 " stroke="#ffffff" stroke-width="7" stroke-opacity="1" stroke-miterlimit="4"/><path stroke-linecap="round" transform="matrix(0.645339, -0.382149, 0.382149, 0.645339, 184.961303, 279.049079)" fill="none" stroke-linejoin="miter" d="M 3.502258 3.499023 L 335.395105 3.49973 " stroke="#ffffff" stroke-width="7" stroke-opacity="1" stroke-miterlimit="4"/><path stroke-linecap="round" transform="matrix(0.64949, -0.37505, 0.37505, 0.64949, 404.520343, 688.083561)" fill="none" stroke-linejoin="miter" d="M 3.499871 3.498183 L 375.569157 3.500832 " stroke="#ffffff" stroke-width="7" stroke-opacity="1" stroke-miterlimit="4"/><path stroke-linecap="round" transform="matrix(0.646868, -0.379555, 0.379555, 0.646868, 158.303067, 262.477303)" fill="none" stroke-linejoin="miter" d="M 3.498044 3.500657 L 377.106901 3.501516 " stroke="#ffffff" stroke-width="7" stroke-opacity="1" stroke-miterlimit="4"/><path stroke-linecap="round" transform="matrix(-0.646868, -0.379555, 0.379555, -0.646868, 650.698027, 267.005397)" fill="none" stroke-linejoin="miter" d="M 3.500049 3.4982 L 377.104414 3.499976 " stroke="#ffffff" stroke-width="7" stroke-opacity="1" stroke-miterlimit="4"/><path stroke-linecap="round" transform="matrix(-0.645339, -0.382149, 0.382149, -0.645339, 622.361564, 283.566452)" fill="none" stroke-linejoin="miter" d="M 3.499861 3.502399 L 335.392708 3.501692 " stroke="#ffffff" stroke-width="7" stroke-opacity="1" stroke-miterlimit="4"/><path stroke-linecap="round" transform="matrix(0.00511984, -0.749983, 0.749983, 0.00511984, 647.471635, 548.035432)" fill="none" stroke-linejoin="miter" d="M 3.49829 3.498396 L 374.262144 3.498644 " stroke="#ffffff" stroke-width="7" stroke-opacity="1" stroke-miterlimit="4"/><path stroke-linecap="round" transform="matrix(0, -0.75, 0.75, 0, 621.072932, 530.241089)" fill="none" stroke-linejoin="miter" d="M 3.498536 3.501716 L 328.415219 3.501716 " stroke="#ffffff" stroke-width="7" stroke-opacity="1" stroke-miterlimit="4"/><path stroke-linecap="round" transform="matrix(0, -0.75, 0.75, 0, 183.670864, 530.241089)" fill="none" stroke-linejoin="miter" d="M 3.498536 3.501348 L 328.415219 3.501348 " stroke="#ffffff" stroke-width="7" stroke-opacity="1" stroke-miterlimit="4"/><path stroke-linecap="round" transform="matrix(-0.647345, -0.378741, 0.378741, -0.647345, 403.663783, 660.462299)" fill="none" stroke-linejoin="miter" d="M 3.501105 3.499206 L 334.342948 3.501022 " stroke="#ffffff" stroke-width="7" stroke-opacity="1" stroke-miterlimit="4"/><path stroke-linecap="round" transform="matrix(-0.64949, -0.37505, 0.37505, -0.64949, 404.516407, 692.629977)" fill="none" stroke-linejoin="miter" d="M 3.502109 3.500503 L 375.566884 3.500459 " stroke="#ffffff" stroke-width="7" stroke-opacity="1" stroke-miterlimit="4"/><path stroke-linecap="round" transform="matrix(0, -0.75, 0.75, 0, 157.005478, 548.186536)" fill="none" stroke-linejoin="miter" d="M 3.498715 3.497905 L 374.425817 3.497905 " stroke="#ffffff" stroke-width="7" stroke-opacity="1" stroke-miterlimit="4"/><path stroke-linecap="round" transform="matrix(0, 1.666642, -1.666642, 0, 681.624353, 252.041698)" fill="none" stroke-linejoin="miter" d="M 3.500032 3.498882 L 182.199511 3.498882 " stroke="#ffffff" stroke-width="7" stroke-opacity="1" stroke-miterlimit="4"/><path stroke-linecap="round" transform="matrix(0.00000000290884, -1.666642, 1.666642, 0.00000000290884, 399.162816, 718.514936)" fill="none" stroke-linejoin="miter" d="M 3.498856 3.500018 L 184.614777 3.500017 " stroke="#ffffff" stroke-width="7" stroke-opacity="1" stroke-miterlimit="4"/><path stroke-linecap="round" transform="matrix(1.450046, -0.821622, 0.821622, 1.450046, 402.956791, 399.921739)" fill="none" stroke-linejoin="miter" d="M 3.499317 3.499525 L 182.680013 3.499597 " stroke="#ffffff" stroke-width="7" stroke-opacity="1" stroke-miterlimit="4"/><path stroke-linecap="round" transform="matrix(1.433625, 0.84995, -0.84995, 1.433625, 407.974495, 86.464468)" fill="none" stroke-linejoin="miter" d="M 3.499121 3.500555 L 185.394219 3.500378 " stroke="#ffffff" stroke-width="7" stroke-opacity="1" stroke-miterlimit="4"/><path stroke-linecap="round" transform="matrix(1.45113, 0.819706, -0.819706, 1.45113, 137.066452, 246.95406)" fill="none" stroke-linejoin="miter" d="M 3.50058 3.499918 L 183.115168 3.499413 " stroke="#ffffff" stroke-width="7" stroke-opacity="1" stroke-miterlimit="4"/><path stroke-linecap="round" transform="matrix(1.441867, -0.835892, 0.835892, 1.441867, 402.07428, 713.471936)" fill="none" stroke-linejoin="miter" d="M 3.499955 3.5006 L 184.312415 3.499983 " stroke="#ffffff" stroke-width="7" stroke-opacity="1" stroke-miterlimit="4"/><path stroke-linecap="round" transform="matrix(-1.433625, 0.84995, -0.84995, -1.433625, 407.970919, 96.499849)" fill="none" stroke-linejoin="miter" d="M 3.500964 3.500541 L 185.394046 3.499523 " stroke="#ffffff" stroke-width="7" stroke-opacity="1" stroke-miterlimit="4"/><path stroke-linecap="round" transform="matrix(0, -1.666642, 1.666642, 0, 128.353987, 561.516328)" fill="none" stroke-linejoin="miter" d="M 3.499691 3.500159 L 182.201514 3.500159 " stroke="#ffffff" stroke-width="7" stroke-opacity="1" stroke-miterlimit="4"/><path stroke-linecap="round" transform="matrix(1.441867, 0.835892, -0.835892, 1.441867, 137.12355, 556.48096)" fill="none" stroke-linejoin="miter" d="M 3.500849 3.499513 L 184.313309 3.500129 " stroke="#ffffff" stroke-width="7" stroke-opacity="1" stroke-miterlimit="4"/><path stroke-linecap="round" transform="matrix(-1.453321, 0.815815, -0.815815, -1.453321, 220.369005, 519.842466)" fill="none" stroke-linejoin="miter" d="M 3.500117 3.501319 L 53.833463 3.498783 " stroke="#ffffff" stroke-width="7" stroke-opacity="1" stroke-miterlimit="4"/><path stroke-linecap="round" transform="matrix(-1.446194, -0.828384, 0.828384, -1.446194, 672.886482, 566.584503)" fill="none" stroke-linejoin="miter" d="M 3.500323 3.498764 L 52.963025 3.500459 " stroke="#ffffff" stroke-width="7" stroke-opacity="1" stroke-miterlimit="4"/><path stroke-linecap="round" transform="matrix(0, -1.666642, 1.666642, 0, 399.991447, 187.295533)" fill="none" stroke-linejoin="miter" d="M 3.500808 3.499714 L 53.995294 3.499714 " stroke="#ffffff" stroke-width="7" stroke-opacity="1" stroke-miterlimit="4"/><g clip-path="url(#2f3e040b08)"><g clip-path="url(#fa21fea297)"><path fill="#f2f2f2" d="M 394.519531 394.519531 L 415.480469 394.519531 L 415.480469 415.480469 L 394.519531 415.480469 Z M 394.519531 394.519531 " fill-opacity="1" fill-rule="nonzero"/></g></g><g clip-path="url(#498cfb79c6)"><g clip-path="url(#3f956cbc88)"><path fill="#f2f2f2" d="M 394.519531 708.039062 L 415.480469 708.039062 L 415.480469 729 L 394.519531 729 Z M 394.519531 708.039062 " fill-opacity="1" fill-rule="nonzero"/></g></g><g clip-path="url(#d2bd87b497)"><g clip-path="url(#fe5e9d0359)"><path fill="#f2f2f2" d="M 123.71875 551.046875 L 144.679688 551.046875 L 144.679688 572.007812 L 123.71875 572.007812 Z M 123.71875 551.046875 " fill-opacity="1" fill-rule="nonzero"/></g></g><g clip-path="url(#65b4eda410)"><g clip-path="url(#7eb0d46b99)"><path fill="#f2f2f2" d="M 665.320312 551.046875 L 686.28125 551.046875 L 686.28125 572.007812 L 665.320312 572.007812 Z M 665.320312 551.046875 " fill-opacity="1" fill-rule="nonzero"/></g></g><g clip-path="url(#67d0bc3ef0)"><g clip-path="url(#6b0d89e33a)"><path fill="#f2f2f2" d="M 665.320312 241.550781 L 686.28125 241.550781 L 686.28125 262.511719 L 665.320312 262.511719 Z M 665.320312 241.550781 " fill-opacity="1" fill-rule="nonzero"/></g></g><g clip-path="url(#3a9e81b527)"><g clip-path="url(#66fedc0f12)"><path fill="#f2f2f2" d="M 123.71875 241.550781 L 144.679688 241.550781 L 144.679688 262.511719 L 123.71875 262.511719 Z M 123.71875 241.550781 " fill-opacity="1" fill-rule="nonzero"/></g></g><g clip-path="url(#c10b62eda9)"><g clip-path="url(#c8ceca5231)"><path fill="#f2f2f2" d="M 394.519531 81 L 415.480469 81 L 415.480469 101.960938 L 394.519531 101.960938 Z M 394.519531 81 " fill-opacity="1" fill-rule="nonzero"/></g></g></svg>